<svg width="168" height="172" viewBox="0 0 168 172" fill="none" xmlns="http://www.w3.org/2000/svg">
<g filter="url(#filter0_i_34_399)">
<path d="M103.918 57.7969C104.046 57.0877 104.113 56.3581 104.113 55.6134C104.113 48.6472 98.2485 43 91.0139 43C85.6356 43 81.0144 46.121 78.997 50.5848C77.3626 49.2261 75.2419 48.4058 72.9243 48.4058C67.7568 48.4058 63.5676 52.4843 63.5676 57.5155C63.5676 57.7956 63.5806 58.0728 63.6061 58.3465C61.1206 59.5188 59.4091 61.9786 59.4091 64.8233C59.4091 68.804 62.7604 72.0309 66.8945 72.0309H102.242C106.376 72.0309 109.727 68.804 109.727 64.8233C109.727 61.3973 107.245 58.5296 103.918 57.7969Z" fill="url(#paint0_linear_34_399)"/>
</g>
<g filter="url(#filter1_f_34_399)">
<path d="M83.9099 53.8145C76.2191 64.0004 74.8855 77.9013 81.6699 89.3639C88.4543 100.826 101.463 106.65 114.351 105.246C111.611 108.876 108.063 112.034 103.788 114.441C87.5149 123.606 66.8634 118.432 57.6615 102.885C48.4596 87.3379 54.1919 67.3052 70.4648 58.1406C74.74 55.7329 79.3174 54.3148 83.9099 53.8145Z" fill="#FFEE94"/>
</g>
<g filter="url(#filter2_i_34_399)">
<path d="M83.1929 58.1067C76.1724 67.4047 74.955 80.0939 81.1481 90.5573C87.3411 101.021 99.2155 106.337 110.981 105.055C108.479 108.368 105.241 111.251 101.338 113.449C86.4836 121.815 67.6322 117.092 59.2324 102.9C50.8326 88.708 56.0652 70.4214 70.9197 62.0557C74.8222 59.8578 79.0006 58.5634 83.1929 58.1067Z" fill="url(#paint1_linear_34_399)"/>
</g>
<g filter="url(#filter3_b_34_399)">
<g filter="url(#filter4_i_34_399)">
<path d="M114.773 113.534C114.933 112.649 115.017 111.739 115.017 110.81C115.017 102.121 107.721 95.0762 98.7224 95.0762C92.0323 95.0762 86.2839 98.9694 83.7745 104.538C81.7415 102.843 79.1035 101.819 76.2207 101.819C69.7928 101.819 64.5819 106.907 64.5819 113.183C64.5819 113.533 64.5981 113.878 64.6297 114.22C61.538 115.682 59.4091 118.75 59.4091 122.299C59.4091 127.265 63.5778 131.29 68.7201 131.29H112.689C117.831 131.29 122 127.265 122 122.299C122 118.025 118.912 114.448 114.773 113.534Z" fill="url(#paint2_linear_34_399)"/>
</g>
</g>
<defs>
<filter id="filter0_i_34_399" x="59.4091" y="43" width="50.3182" height="39.031" filterUnits="userSpaceOnUse" color-interpolation-filters="sRGB">
<feFlood flood-opacity="0" result="BackgroundImageFix"/>
<feBlend mode="normal" in="SourceGraphic" in2="BackgroundImageFix" result="shape"/>
<feColorMatrix in="SourceAlpha" type="matrix" values="0 0 0 0 0 0 0 0 0 0 0 0 0 0 0 0 0 0 127 0" result="hardAlpha"/>
<feOffset dy="11"/>
<feGaussianBlur stdDeviation="5"/>
<feComposite in2="hardAlpha" operator="arithmetic" k2="-1" k3="1"/>
<feColorMatrix type="matrix" values="0 0 0 0 1 0 0 0 0 1 0 0 0 0 1 0 0 0 1 0"/>
<feBlend mode="normal" in2="shape" result="effect1_innerShadow_34_399"/>
</filter>
<filter id="filter1_f_34_399" x="0.270996" y="0.814575" width="167.08" height="171.159" filterUnits="userSpaceOnUse" color-interpolation-filters="sRGB">
<feFlood flood-opacity="0" result="BackgroundImageFix"/>
<feBlend mode="normal" in="SourceGraphic" in2="BackgroundImageFix" result="shape"/>
<feGaussianBlur stdDeviation="26.5" result="effect1_foregroundBlur_34_399"/>
</filter>
<filter id="filter2_i_34_399" x="55.2246" y="58.1067" width="55.756" height="63.4791" filterUnits="userSpaceOnUse" color-interpolation-filters="sRGB">
<feFlood flood-opacity="0" result="BackgroundImageFix"/>
<feBlend mode="normal" in="SourceGraphic" in2="BackgroundImageFix" result="shape"/>
<feColorMatrix in="SourceAlpha" type="matrix" values="0 0 0 0 0 0 0 0 0 0 0 0 0 0 0 0 0 0 127 0" result="hardAlpha"/>
<feOffset dy="4"/>
<feGaussianBlur stdDeviation="4"/>
<feComposite in2="hardAlpha" operator="arithmetic" k2="-1" k3="1"/>
<feColorMatrix type="matrix" values="0 0 0 0 1 0 0 0 0 1 0 0 0 0 1 0 0 0 0.55 0"/>
<feBlend mode="normal" in2="shape" result="effect1_innerShadow_34_399"/>
</filter>
<filter id="filter3_b_34_399" x="32.4091" y="68.0762" width="116.591" height="90.2139" filterUnits="userSpaceOnUse" color-interpolation-filters="sRGB">
<feFlood flood-opacity="0" result="BackgroundImageFix"/>
<feGaussianBlur in="BackgroundImageFix" stdDeviation="13.5"/>
<feComposite in2="SourceAlpha" operator="in" result="effect1_backgroundBlur_34_399"/>
<feBlend mode="normal" in="SourceGraphic" in2="effect1_backgroundBlur_34_399" result="shape"/>
</filter>
<filter id="filter4_i_34_399" x="59.4091" y="95.0762" width="62.5909" height="46.2139" filterUnits="userSpaceOnUse" color-interpolation-filters="sRGB">
<feFlood flood-opacity="0" result="BackgroundImageFix"/>
<feBlend mode="normal" in="SourceGraphic" in2="BackgroundImageFix" result="shape"/>
<feColorMatrix in="SourceAlpha" type="matrix" values="0 0 0 0 0 0 0 0 0 0 0 0 0 0 0 0 0 0 127 0" result="hardAlpha"/>
<feOffset dy="11"/>
<feGaussianBlur stdDeviation="5"/>
<feComposite in2="hardAlpha" operator="arithmetic" k2="-1" k3="1"/>
<feColorMatrix type="matrix" values="0 0 0 0 1 0 0 0 0 1 0 0 0 0 1 0 0 0 1 0"/>
<feBlend mode="normal" in2="shape" result="effect1_innerShadow_34_399"/>
</filter>
<linearGradient id="paint0_linear_34_399" x1="62.6096" y1="69.4389" x2="112.326" y2="31.1851" gradientUnits="userSpaceOnUse">
<stop stop-color="white"/>
<stop offset="1" stop-color="white" stop-opacity="0.58"/>
</linearGradient>
<linearGradient id="paint1_linear_34_399" x1="84.7216" y1="53.1757" x2="74.103" y2="119.089" gradientUnits="userSpaceOnUse">
<stop stop-color="#FFEE94"/>
<stop offset="1" stop-color="#FF9900"/>
</linearGradient>
<linearGradient id="paint2_linear_34_399" x1="63.3901" y1="128.057" x2="125.362" y2="80.5073" gradientUnits="userSpaceOnUse">
<stop stop-color="white"/>
<stop offset="1" stop-color="white" stop-opacity="0.58"/>
</linearGradient>
</defs>
</svg>
