<svg width="217" height="212" viewBox="0 0 217 212" fill="none" xmlns="http://www.w3.org/2000/svg">
<g filter="url(#filter0_f_34_398)">
<rect x="77.4919" y="77" width="62.508" height="57.2317" rx="28.6158" fill="#FFEF9A"/>
</g>
<g filter="url(#filter1_i_34_398)">
<path d="M135.833 110.174C135.833 124.719 123.706 136.511 108.746 136.511C93.7864 136.511 81.6592 124.719 81.6592 110.174C81.6592 95.6287 93.7864 83.8374 108.746 83.8374C123.706 83.8374 135.833 95.6287 135.833 110.174Z" fill="url(#paint0_linear_34_398)"/>
</g>
<g filter="url(#filter2_b_34_398)">
<g filter="url(#filter3_i_34_398)">
<path d="M124.197 123.755C124.386 122.716 124.484 121.646 124.484 120.555C124.484 110.346 115.893 102.071 105.296 102.071C97.4173 102.071 90.6479 106.644 87.6928 113.186C85.2988 111.195 82.1922 109.993 78.7974 109.993C71.2279 109.993 65.0915 115.97 65.0915 123.343C65.0915 123.753 65.1106 124.159 65.1478 124.56C61.507 126.278 59 129.883 59 134.052C59 139.885 63.9091 144.614 69.9647 144.614H121.743C127.798 144.614 132.707 139.885 132.707 134.052C132.707 129.031 129.071 124.829 124.197 123.755Z" fill="url(#paint1_linear_34_398)"/>
</g>
</g>
<defs>
<filter id="filter0_f_34_398" x="0.491943" y="0" width="216.508" height="211.232" filterUnits="userSpaceOnUse" color-interpolation-filters="sRGB">
<feFlood flood-opacity="0" result="BackgroundImageFix"/>
<feBlend mode="normal" in="SourceGraphic" in2="BackgroundImageFix" result="shape"/>
<feGaussianBlur stdDeviation="38.5" result="effect1_foregroundBlur_34_398"/>
</filter>
<filter id="filter1_i_34_398" x="81.6592" y="83.8374" width="54.1736" height="57.6735" filterUnits="userSpaceOnUse" color-interpolation-filters="sRGB">
<feFlood flood-opacity="0" result="BackgroundImageFix"/>
<feBlend mode="normal" in="SourceGraphic" in2="BackgroundImageFix" result="shape"/>
<feColorMatrix in="SourceAlpha" type="matrix" values="0 0 0 0 0 0 0 0 0 0 0 0 0 0 0 0 0 0 127 0" result="hardAlpha"/>
<feOffset dy="5"/>
<feGaussianBlur stdDeviation="9"/>
<feComposite in2="hardAlpha" operator="arithmetic" k2="-1" k3="1"/>
<feColorMatrix type="matrix" values="0 0 0 0 1 0 0 0 0 1 0 0 0 0 1 0 0 0 0.81 0"/>
<feBlend mode="normal" in2="shape" result="effect1_innerShadow_34_398"/>
</filter>
<filter id="filter2_b_34_398" x="32" y="75.0706" width="127.707" height="96.5439" filterUnits="userSpaceOnUse" color-interpolation-filters="sRGB">
<feFlood flood-opacity="0" result="BackgroundImageFix"/>
<feGaussianBlur in="BackgroundImageFix" stdDeviation="13.5"/>
<feComposite in2="SourceAlpha" operator="in" result="effect1_backgroundBlur_34_398"/>
<feBlend mode="normal" in="SourceGraphic" in2="effect1_backgroundBlur_34_398" result="shape"/>
</filter>
<filter id="filter3_i_34_398" x="59" y="102.071" width="73.7074" height="52.5439" filterUnits="userSpaceOnUse" color-interpolation-filters="sRGB">
<feFlood flood-opacity="0" result="BackgroundImageFix"/>
<feBlend mode="normal" in="SourceGraphic" in2="BackgroundImageFix" result="shape"/>
<feColorMatrix in="SourceAlpha" type="matrix" values="0 0 0 0 0 0 0 0 0 0 0 0 0 0 0 0 0 0 127 0" result="hardAlpha"/>
<feOffset dy="11"/>
<feGaussianBlur stdDeviation="5"/>
<feComposite in2="hardAlpha" operator="arithmetic" k2="-1" k3="1"/>
<feColorMatrix type="matrix" values="0 0 0 0 1 0 0 0 0 1 0 0 0 0 1 0 0 0 1 0"/>
<feBlend mode="normal" in2="shape" result="effect1_innerShadow_34_398"/>
</filter>
<linearGradient id="paint0_linear_34_398" x1="104.632" y1="124.509" x2="125.987" y2="85.9882" gradientUnits="userSpaceOnUse">
<stop stop-color="#FF9900"/>
<stop offset="1" stop-color="#FFEE94"/>
</linearGradient>
<linearGradient id="paint1_linear_34_398" x1="63.6881" y1="140.816" x2="136.537" y2="84.787" gradientUnits="userSpaceOnUse">
<stop stop-color="white"/>
<stop offset="1" stop-color="white" stop-opacity="0.58"/>
</linearGradient>
</defs>
</svg>
