<svg width="81" height="47" viewBox="0 0 81 47" fill="none" xmlns="http://www.w3.org/2000/svg">
<g filter="url(#filter0_i_37_6)">
<path d="M71.648 23.9223C71.8549 22.7757 71.9628 21.5961 71.9628 20.3923C71.9628 9.12993 62.5219 0 50.876 0C42.2183 0 34.7792 5.04581 31.5317 12.2624C28.9008 10.0658 25.4869 8.73954 21.7562 8.73954C13.4377 8.73954 6.69421 15.3334 6.69421 23.4673C6.69421 23.9202 6.71512 24.3684 6.75605 24.8109C2.755 26.7061 -2.5332e-06 30.6829 -2.5332e-06 35.2819C-2.5332e-06 41.7175 5.39479 46.9346 12.0496 46.9346H68.9504C75.6052 46.9346 81 41.7175 81 35.2819C81 29.7431 77.0041 25.1069 71.648 23.9223Z" fill="url(#paint0_linear_37_6)"/>
</g>
<defs>
<filter id="filter0_i_37_6" x="0" y="0" width="81" height="56.9346" filterUnits="userSpaceOnUse" color-interpolation-filters="sRGB">
<feFlood flood-opacity="0" result="BackgroundImageFix"/>
<feBlend mode="normal" in="SourceGraphic" in2="BackgroundImageFix" result="shape"/>
<feColorMatrix in="SourceAlpha" type="matrix" values="0 0 0 0 0 0 0 0 0 0 0 0 0 0 0 0 0 0 127 0" result="hardAlpha"/>
<feOffset dy="11"/>
<feGaussianBlur stdDeviation="5"/>
<feComposite in2="hardAlpha" operator="arithmetic" k2="-1" k3="1"/>
<feColorMatrix type="matrix" values="0 0 0 0 1 0 0 0 0 1 0 0 0 0 1 0 0 0 1 0"/>
<feBlend mode="normal" in2="shape" result="effect1_innerShadow_37_6"/>
</filter>
<linearGradient id="paint0_linear_37_6" x1="5.15194" y1="42.744" x2="85.4388" y2="-18.7668" gradientUnits="userSpaceOnUse">
<stop stop-color="white"/>
<stop offset="1" stop-color="white" stop-opacity="0.58"/>
</linearGradient>
</defs>
</svg>
