<svg width="81" height="79" viewBox="0 0 81 79" fill="none" xmlns="http://www.w3.org/2000/svg">
<ellipse cx="40.5" cy="39.4054" rx="40.5" ry="39.4054" fill="url(#paint0_radial_34_405)"/>
<ellipse rx="9.2676" ry="3.87039" transform="matrix(0.29315 0.956066 -0.960359 0.278765 23.6961 28.9147)" fill="#A9A9A9"/>
<ellipse rx="9.2676" ry="3.87039" transform="matrix(0.29315 0.956066 -0.960359 0.278765 10.7493 54.8356)" fill="#A9A9A9"/>
<ellipse rx="9.36759" ry="3.83008" transform="matrix(0.694489 0.719504 -0.738221 0.674559 35.1289 56.6041)" fill="#A9A9A9"/>
<ellipse rx="9.36759" ry="3.83008" transform="matrix(0.694489 0.719504 -0.738221 0.674559 63.4445 56.6041)" fill="#A9A9A9"/>
<ellipse rx="6.81262" ry="2.78544" transform="matrix(0.694489 0.719504 -0.738221 0.674559 41.1169 38.9652)" fill="#A9A9A9"/>
<ellipse rx="6.81262" ry="2.78544" transform="matrix(0.694489 0.719504 -0.738221 0.674559 35.2986 8.39564)" fill="#A9A9A9"/>
<ellipse rx="6.81262" ry="2.78544" transform="matrix(0.694489 0.719504 -0.738221 0.674559 69.8614 24.5453)" fill="#A9A9A9"/>
<defs>
<radialGradient id="paint0_radial_34_405" cx="0" cy="0" r="1" gradientUnits="userSpaceOnUse" gradientTransform="translate(40.5 39.4054) rotate(90) scale(39.4054 40.5)">
<stop offset="0.284196" stop-color="#B7B7B7"/>
<stop offset="1" stop-color="#E2E2E2"/>
</radialGradient>
</defs>
</svg>
