<svg width="81" height="102" viewBox="0 0 81 102" fill="none" xmlns="http://www.w3.org/2000/svg">
<path fill-rule="evenodd" clip-rule="evenodd" d="M36.8184 7.06727C34.3849 2.39293 28.6743 0.333247 24.2725 3.23077C9.62026 12.8758 1.52588e-05 29.1208 1.52588e-05 47.5355C1.52588e-05 77.1281 24.8441 101.118 55.4908 101.118C61.6906 101.118 67.653 100.136 73.2202 98.3246C78.4327 96.6287 80.2745 90.5397 77.7432 85.6776L36.8184 7.06727Z" fill="#E5E5E5"/>
<ellipse rx="11.1886" ry="4.70244" transform="matrix(0.295193 0.955438 -0.960923 0.276816 67.5498 84.6621)" fill="#A9A9A9"/>
<ellipse rx="11.1886" ry="4.70244" transform="matrix(0.295193 0.955438 -0.960923 0.276816 25.9821 18.415)" fill="#A9A9A9"/>
<ellipse rx="11.3435" ry="4.64018" transform="matrix(0.697217 0.71686 -0.740768 0.67176 11.3462 44.9505)" fill="#A9A9A9"/>
<ellipse rx="8.24963" ry="3.37459" transform="matrix(0.697217 0.71686 -0.740769 0.67176 21.5694 73.8368)" fill="#A9A9A9"/>
<ellipse rx="8.24963" ry="3.37459" transform="matrix(0.697217 0.71686 -0.740768 0.67176 44.9764 88.2552)" fill="#A9A9A9"/>
<ellipse rx="8.24963" ry="3.37459" transform="matrix(0.697217 0.71686 -0.740768 0.67176 44.5729 57.4698)" fill="#A9A9A9"/>
</svg>
