<svg width="173" height="178" viewBox="0 0 173 178" fill="none" xmlns="http://www.w3.org/2000/svg">
<g filter="url(#filter0_f_34_396)">
<path d="M86.4716 53.6311C78.1424 64.6397 76.6981 79.6634 84.0456 92.0518C91.3932 104.44 105.481 110.735 119.439 109.217C116.472 113.14 112.629 116.553 107.999 119.155C90.3757 129.06 68.0101 123.468 58.0445 106.665C48.0788 89.8623 54.2868 68.2115 71.9105 58.3066C76.5405 55.7045 81.4978 54.1719 86.4716 53.6311Z" fill="#FFEE94"/>
</g>
<g filter="url(#filter1_i_34_396)">
<path d="M85.695 58.2701C78.0918 68.319 76.7734 82.0332 83.4805 93.3417C90.1875 104.65 103.048 110.396 115.789 109.011C113.08 112.591 109.573 115.707 105.346 118.082C89.2588 127.124 68.8427 122.019 59.7457 106.681C50.6487 91.343 56.3157 71.5795 72.4031 62.538C76.6296 60.1627 81.1548 58.7637 85.695 58.2701Z" fill="url(#paint0_linear_34_396)"/>
</g>
<defs>
<filter id="filter0_f_34_396" x="0.289551" y="0.631104" width="172.15" height="176.422" filterUnits="userSpaceOnUse" color-interpolation-filters="sRGB">
<feFlood flood-opacity="0" result="BackgroundImageFix"/>
<feBlend mode="normal" in="SourceGraphic" in2="BackgroundImageFix" result="shape"/>
<feGaussianBlur stdDeviation="26.5" result="effect1_foregroundBlur_34_396"/>
</filter>
<filter id="filter1_i_34_396" x="55.4053" y="58.27" width="60.3839" height="68.2833" filterUnits="userSpaceOnUse" color-interpolation-filters="sRGB">
<feFlood flood-opacity="0" result="BackgroundImageFix"/>
<feBlend mode="normal" in="SourceGraphic" in2="BackgroundImageFix" result="shape"/>
<feColorMatrix in="SourceAlpha" type="matrix" values="0 0 0 0 0 0 0 0 0 0 0 0 0 0 0 0 0 0 127 0" result="hardAlpha"/>
<feOffset dy="4"/>
<feGaussianBlur stdDeviation="4"/>
<feComposite in2="hardAlpha" operator="arithmetic" k2="-1" k3="1"/>
<feColorMatrix type="matrix" values="0 0 0 0 1 0 0 0 0 1 0 0 0 0 1 0 0 0 0.55 0"/>
<feBlend mode="normal" in2="shape" result="effect1_innerShadow_34_396"/>
</filter>
<linearGradient id="paint0_linear_34_396" x1="87.3506" y1="52.9408" x2="75.8968" y2="124.186" gradientUnits="userSpaceOnUse">
<stop stop-color="#FFEE94"/>
<stop offset="1" stop-color="#FF9900"/>
</linearGradient>
</defs>
</svg>
