<svg width="81" height="67" viewBox="0 0 81 67" fill="none" xmlns="http://www.w3.org/2000/svg">
<g filter="url(#filter0_i_34_407)">
<path d="M35.9602 2.03869C29.5149 10.5686 28.3973 22.2098 34.0829 31.8089C39.7685 41.408 50.6699 46.2851 61.471 45.1093C59.1744 48.1487 56.2014 50.7932 52.6186 52.8095C38.9812 60.4842 21.6745 56.1514 13.963 43.1319C6.25144 30.1123 11.0553 13.3362 24.6927 5.66147C28.2754 3.64519 32.1114 2.45767 35.9602 2.03869Z" fill="#E2E2E2"/>
</g>
<ellipse rx="6.7413" ry="2.81104" transform="matrix(0.292661 0.956216 -0.960223 0.279235 16.5026 27.8236)" fill="#C8C8C8"/>
<ellipse rx="6.8091" ry="2.78368" transform="matrix(0.693831 0.720138 -0.737606 0.675231 24.805 47.9682)" fill="#C8C8C8"/>
<ellipse rx="6.8091" ry="2.78368" transform="matrix(0.693831 0.720138 -0.737606 0.675231 45.3676 47.9682)" fill="#C8C8C8"/>
<ellipse rx="4.95195" ry="2.02445" transform="matrix(0.693831 0.720138 -0.737606 0.675231 29.1534 35.1354)" fill="#C8C8C8"/>
<ellipse rx="4.95195" ry="2.02445" transform="matrix(0.693831 0.720138 -0.737606 0.675231 24.9282 12.8955)" fill="#C8C8C8"/>
<g filter="url(#filter1_b_34_407)">
<path d="M45.4853 52.6961C45.5937 52.0963 45.6502 51.4793 45.6502 50.8495C45.6502 44.9582 40.705 40.1824 34.6048 40.1824C30.0697 40.1824 26.1731 42.8218 24.472 46.5968C23.0939 45.4478 21.3057 44.754 19.3515 44.754C14.9942 44.754 11.4619 48.2032 11.4619 52.4581C11.4619 52.695 11.4728 52.9294 11.4943 53.1609C9.39849 54.1523 7.9554 56.2325 7.9554 58.6382C7.9554 62.0047 10.7812 64.7338 14.2671 64.7338H44.0723C47.5581 64.7338 50.384 62.0047 50.384 58.6382C50.384 55.7409 48.2909 53.3157 45.4853 52.6961Z" fill="#54516D" fill-opacity="0.8"/>
</g>
<g filter="url(#filter2_b_34_407)">
<path d="M76.1013 16.7434C76.2097 16.1436 76.2662 15.5266 76.2662 14.8969C76.2662 9.00558 71.321 4.22974 65.2208 4.22974C60.6858 4.22974 56.7891 6.86919 55.088 10.6442C53.7099 9.49513 51.9217 8.80137 49.9675 8.80137C45.6102 8.80137 42.0779 12.2506 42.0779 16.5054C42.0779 16.7424 42.0889 16.9768 42.1103 17.2083C40.0145 18.1997 38.5714 20.2799 38.5714 22.6856C38.5714 26.0521 41.3973 28.7811 44.8831 28.7811H74.6883C78.1742 28.7811 81 26.0521 81 22.6856C81 19.7883 78.9069 17.3631 76.1013 16.7434Z" fill="#54516D" fill-opacity="0.8"/>
</g>
<defs>
<filter id="filter0_i_34_407" x="10.2836" y="2.03857" width="51.1875" height="58.5662" filterUnits="userSpaceOnUse" color-interpolation-filters="sRGB">
<feFlood flood-opacity="0" result="BackgroundImageFix"/>
<feBlend mode="normal" in="SourceGraphic" in2="BackgroundImageFix" result="shape"/>
<feColorMatrix in="SourceAlpha" type="matrix" values="0 0 0 0 0 0 0 0 0 0 0 0 0 0 0 0 0 0 127 0" result="hardAlpha"/>
<feOffset dy="4"/>
<feGaussianBlur stdDeviation="4"/>
<feComposite in2="hardAlpha" operator="arithmetic" k2="-1" k3="1"/>
<feColorMatrix type="matrix" values="0 0 0 0 1 0 0 0 0 1 0 0 0 0 1 0 0 0 0.55 0"/>
<feBlend mode="normal" in2="shape" result="effect1_innerShadow_34_407"/>
</filter>
<filter id="filter1_b_34_407" x="-19.0446" y="13.1824" width="96.4286" height="78.5513" filterUnits="userSpaceOnUse" color-interpolation-filters="sRGB">
<feFlood flood-opacity="0" result="BackgroundImageFix"/>
<feGaussianBlur in="BackgroundImageFix" stdDeviation="13.5"/>
<feComposite in2="SourceAlpha" operator="in" result="effect1_backgroundBlur_34_407"/>
<feBlend mode="normal" in="SourceGraphic" in2="effect1_backgroundBlur_34_407" result="shape"/>
</filter>
<filter id="filter2_b_34_407" x="11.5714" y="-22.7703" width="96.4286" height="78.5513" filterUnits="userSpaceOnUse" color-interpolation-filters="sRGB">
<feFlood flood-opacity="0" result="BackgroundImageFix"/>
<feGaussianBlur in="BackgroundImageFix" stdDeviation="13.5"/>
<feComposite in2="SourceAlpha" operator="in" result="effect1_backgroundBlur_34_407"/>
<feBlend mode="normal" in="SourceGraphic" in2="effect1_backgroundBlur_34_407" result="shape"/>
</filter>
</defs>
</svg>
