<svg width="209" height="213" viewBox="0 0 209 213" fill="none" xmlns="http://www.w3.org/2000/svg">
<g filter="url(#filter0_f_34_395)">
<path d="M101.953 53.5473C93.8962 64.2049 92.4991 78.7496 99.6066 90.7431C106.714 102.737 120.342 108.83 133.844 107.361C130.973 111.159 127.256 114.463 122.778 116.982C105.73 126.571 84.095 121.157 74.4549 104.89C64.8148 88.6233 70.82 67.6628 87.8679 58.0737C92.3467 55.5545 97.142 54.0708 101.953 53.5473Z" fill="#FFEE94"/>
</g>
<g filter="url(#filter1_i_34_395)">
<path d="M101.202 58.0383C93.8473 67.7669 92.572 81.0438 99.0599 91.9918C105.548 102.94 117.988 108.502 130.313 107.161C127.692 110.628 124.3 113.644 120.211 115.943C104.649 124.697 84.9004 119.755 76.1007 104.906C67.3009 90.0569 72.7826 70.9234 88.3445 62.1701C92.4328 59.8705 96.8102 58.5161 101.202 58.0383Z" fill="url(#paint0_linear_34_395)"/>
</g>
<g filter="url(#filter2_b_34_395)">
<g filter="url(#filter3_i_34_395)">
<path d="M130.17 106.692C130.343 105.733 130.433 104.748 130.433 103.741C130.433 94.3292 122.528 86.6991 112.777 86.6991C105.528 86.6991 99.2992 90.916 96.5801 96.9471C94.3772 95.1114 91.5188 94.003 88.3951 94.003C81.43 94.003 75.7837 99.5136 75.7837 106.311C75.7837 106.69 75.8012 107.064 75.8354 107.434C72.4853 109.018 70.1786 112.342 70.1786 116.185C70.1786 121.564 74.6956 125.924 80.2677 125.924H127.911C133.483 125.924 138 121.564 138 116.185C138 111.556 134.654 107.682 130.17 106.692Z" fill="url(#paint1_linear_34_395)"/>
</g>
</g>
<g filter="url(#filter4_di_34_395)">
<path d="M88.4299 115.317C84.4365 120.438 78.8459 130.679 88.4299 130.679C98.0138 130.679 92.4232 120.438 88.4299 115.317Z" fill="#00BCFF"/>
</g>
<g filter="url(#filter5_di_34_395)">
<path d="M119.533 115.317C115.539 120.438 109.949 130.679 119.533 130.679C129.117 130.679 123.526 120.438 119.533 115.317Z" fill="#00BCFF"/>
</g>
<g filter="url(#filter6_di_34_395)">
<path d="M104.629 136.571C100.636 141.691 95.0454 151.932 104.629 151.932C114.213 151.932 108.623 141.691 104.629 136.571Z" fill="#00BCFF"/>
</g>
<g filter="url(#filter7_f_34_395)">
<rect x="78.1703" y="127.101" width="51.838" height="7.36501" rx="3.6825" fill="#00BCFF"/>
</g>
<defs>
<filter id="filter0_f_34_395" x="16.8553" y="0.547241" width="169.989" height="174.177" filterUnits="userSpaceOnUse" color-interpolation-filters="sRGB">
<feFlood flood-opacity="0" result="BackgroundImageFix"/>
<feBlend mode="normal" in="SourceGraphic" in2="BackgroundImageFix" result="shape"/>
<feGaussianBlur stdDeviation="26.5" result="effect1_foregroundBlur_34_395"/>
</filter>
<filter id="filter1_i_34_395" x="71.902" y="58.0383" width="58.411" height="66.2338" filterUnits="userSpaceOnUse" color-interpolation-filters="sRGB">
<feFlood flood-opacity="0" result="BackgroundImageFix"/>
<feBlend mode="normal" in="SourceGraphic" in2="BackgroundImageFix" result="shape"/>
<feColorMatrix in="SourceAlpha" type="matrix" values="0 0 0 0 0 0 0 0 0 0 0 0 0 0 0 0 0 0 127 0" result="hardAlpha"/>
<feOffset dy="4"/>
<feGaussianBlur stdDeviation="4"/>
<feComposite in2="hardAlpha" operator="arithmetic" k2="-1" k3="1"/>
<feColorMatrix type="matrix" values="0 0 0 0 1 0 0 0 0 1 0 0 0 0 1 0 0 0 0.55 0"/>
<feBlend mode="normal" in2="shape" result="effect1_innerShadow_34_395"/>
</filter>
<filter id="filter2_b_34_395" x="43.1786" y="59.6991" width="121.821" height="93.2245" filterUnits="userSpaceOnUse" color-interpolation-filters="sRGB">
<feFlood flood-opacity="0" result="BackgroundImageFix"/>
<feGaussianBlur in="BackgroundImageFix" stdDeviation="13.5"/>
<feComposite in2="SourceAlpha" operator="in" result="effect1_backgroundBlur_34_395"/>
<feBlend mode="normal" in="SourceGraphic" in2="effect1_backgroundBlur_34_395" result="shape"/>
</filter>
<filter id="filter3_i_34_395" x="70.1786" y="86.6991" width="67.8214" height="49.2245" filterUnits="userSpaceOnUse" color-interpolation-filters="sRGB">
<feFlood flood-opacity="0" result="BackgroundImageFix"/>
<feBlend mode="normal" in="SourceGraphic" in2="BackgroundImageFix" result="shape"/>
<feColorMatrix in="SourceAlpha" type="matrix" values="0 0 0 0 0 0 0 0 0 0 0 0 0 0 0 0 0 0 127 0" result="hardAlpha"/>
<feOffset dy="11"/>
<feGaussianBlur stdDeviation="5"/>
<feComposite in2="hardAlpha" operator="arithmetic" k2="-1" k3="1"/>
<feColorMatrix type="matrix" values="0 0 0 0 1 0 0 0 0 1 0 0 0 0 1 0 0 0 1 0"/>
<feBlend mode="normal" in2="shape" result="effect1_innerShadow_34_395"/>
</filter>
<filter id="filter4_di_34_395" x="64.1381" y="115.317" width="48.5836" height="54.3613" filterUnits="userSpaceOnUse" color-interpolation-filters="sRGB">
<feFlood flood-opacity="0" result="BackgroundImageFix"/>
<feColorMatrix in="SourceAlpha" type="matrix" values="0 0 0 0 0 0 0 0 0 0 0 0 0 0 0 0 0 0 127 0" result="hardAlpha"/>
<feOffset dy="20"/>
<feGaussianBlur stdDeviation="9.5"/>
<feComposite in2="hardAlpha" operator="out"/>
<feColorMatrix type="matrix" values="0 0 0 0 0.283785 0 0 0 0 0.178889 0 0 0 0 0.933333 0 0 0 1 0"/>
<feBlend mode="normal" in2="BackgroundImageFix" result="effect1_dropShadow_34_395"/>
<feBlend mode="normal" in="SourceGraphic" in2="effect1_dropShadow_34_395" result="shape"/>
<feColorMatrix in="SourceAlpha" type="matrix" values="0 0 0 0 0 0 0 0 0 0 0 0 0 0 0 0 0 0 127 0" result="hardAlpha"/>
<feOffset dy="9"/>
<feGaussianBlur stdDeviation="1.5"/>
<feComposite in2="hardAlpha" operator="arithmetic" k2="-1" k3="1"/>
<feColorMatrix type="matrix" values="0 0 0 0 1 0 0 0 0 1 0 0 0 0 1 0 0 0 0.21 0"/>
<feBlend mode="normal" in2="shape" result="effect2_innerShadow_34_395"/>
</filter>
<filter id="filter5_di_34_395" x="95.241" y="115.317" width="48.5836" height="54.3613" filterUnits="userSpaceOnUse" color-interpolation-filters="sRGB">
<feFlood flood-opacity="0" result="BackgroundImageFix"/>
<feColorMatrix in="SourceAlpha" type="matrix" values="0 0 0 0 0 0 0 0 0 0 0 0 0 0 0 0 0 0 127 0" result="hardAlpha"/>
<feOffset dy="20"/>
<feGaussianBlur stdDeviation="9.5"/>
<feComposite in2="hardAlpha" operator="out"/>
<feColorMatrix type="matrix" values="0 0 0 0 0.283785 0 0 0 0 0.178889 0 0 0 0 0.933333 0 0 0 1 0"/>
<feBlend mode="normal" in2="BackgroundImageFix" result="effect1_dropShadow_34_395"/>
<feBlend mode="normal" in="SourceGraphic" in2="effect1_dropShadow_34_395" result="shape"/>
<feColorMatrix in="SourceAlpha" type="matrix" values="0 0 0 0 0 0 0 0 0 0 0 0 0 0 0 0 0 0 127 0" result="hardAlpha"/>
<feOffset dy="9"/>
<feGaussianBlur stdDeviation="1.5"/>
<feComposite in2="hardAlpha" operator="arithmetic" k2="-1" k3="1"/>
<feColorMatrix type="matrix" values="0 0 0 0 1 0 0 0 0 1 0 0 0 0 1 0 0 0 0.21 0"/>
<feBlend mode="normal" in2="shape" result="effect2_innerShadow_34_395"/>
</filter>
<filter id="filter6_di_34_395" x="80.3375" y="136.571" width="48.5836" height="54.3613" filterUnits="userSpaceOnUse" color-interpolation-filters="sRGB">
<feFlood flood-opacity="0" result="BackgroundImageFix"/>
<feColorMatrix in="SourceAlpha" type="matrix" values="0 0 0 0 0 0 0 0 0 0 0 0 0 0 0 0 0 0 127 0" result="hardAlpha"/>
<feOffset dy="20"/>
<feGaussianBlur stdDeviation="9.5"/>
<feComposite in2="hardAlpha" operator="out"/>
<feColorMatrix type="matrix" values="0 0 0 0 0.283785 0 0 0 0 0.178889 0 0 0 0 0.933333 0 0 0 1 0"/>
<feBlend mode="normal" in2="BackgroundImageFix" result="effect1_dropShadow_34_395"/>
<feBlend mode="normal" in="SourceGraphic" in2="effect1_dropShadow_34_395" result="shape"/>
<feColorMatrix in="SourceAlpha" type="matrix" values="0 0 0 0 0 0 0 0 0 0 0 0 0 0 0 0 0 0 127 0" result="hardAlpha"/>
<feOffset dy="9"/>
<feGaussianBlur stdDeviation="1.5"/>
<feComposite in2="hardAlpha" operator="arithmetic" k2="-1" k3="1"/>
<feColorMatrix type="matrix" values="0 0 0 0 1 0 0 0 0 1 0 0 0 0 1 0 0 0 0.21 0"/>
<feBlend mode="normal" in2="shape" result="effect2_innerShadow_34_395"/>
</filter>
<filter id="filter7_f_34_395" x="0.170288" y="49.1014" width="207.838" height="163.365" filterUnits="userSpaceOnUse" color-interpolation-filters="sRGB">
<feFlood flood-opacity="0" result="BackgroundImageFix"/>
<feBlend mode="normal" in="SourceGraphic" in2="BackgroundImageFix" result="shape"/>
<feGaussianBlur stdDeviation="39" result="effect1_foregroundBlur_34_395"/>
</filter>
<linearGradient id="paint0_linear_34_395" x1="102.804" y1="52.8789" x2="91.7063" y2="121.85" gradientUnits="userSpaceOnUse">
<stop stop-color="#FFEE94"/>
<stop offset="1" stop-color="#FF9900"/>
</linearGradient>
<linearGradient id="paint1_linear_34_395" x1="74.4923" y1="122.421" x2="141.623" y2="70.8932" gradientUnits="userSpaceOnUse">
<stop stop-color="white"/>
<stop offset="1" stop-color="white" stop-opacity="0.58"/>
</linearGradient>
</defs>
</svg>
