<svg width="81" height="87" viewBox="0 0 81 87" fill="none" xmlns="http://www.w3.org/2000/svg">
<g filter="url(#filter0_i_34_404)">
<path d="M46.4716 2.63881C38.1424 13.6801 36.6981 28.7486 44.0456 41.1738C51.3932 53.5991 65.4811 59.9121 79.4395 58.3901C76.4716 62.3244 72.6294 65.7474 67.9994 68.3573C50.3757 78.2917 28.0101 72.6832 18.0445 55.8305C8.07878 38.9778 14.2868 17.2625 31.9105 7.32821C36.5405 4.7183 41.4978 3.18115 46.4716 2.63881Z" fill="#E2E2E2"/>
</g>
<ellipse rx="8.72483" ry="3.63319" transform="matrix(0.292225 0.95635 -0.960101 0.279655 21.3264 36.0153)" fill="#C8C8C8"/>
<ellipse rx="8.8069" ry="3.60005" transform="matrix(0.693244 0.720703 -0.737058 0.67583 32.0558 62.0907)" fill="#C8C8C8"/>
<ellipse rx="8.8069" ry="3.60005" transform="matrix(0.693244 0.720703 -0.737058 0.67583 58.6289 62.0907)" fill="#C8C8C8"/>
<ellipse rx="6.40486" ry="2.61815" transform="matrix(0.693244 0.720703 -0.737058 0.67583 37.6752 45.4799)" fill="#C8C8C8"/>
<ellipse rx="6.40486" ry="2.61815" transform="matrix(0.693244 0.720703 -0.737058 0.67583 32.215 16.6923)" fill="#C8C8C8"/>
<defs>
<filter id="filter0_i_34_404" x="13.2896" y="2.63892" width="66.1499" height="74.6311" filterUnits="userSpaceOnUse" color-interpolation-filters="sRGB">
<feFlood flood-opacity="0" result="BackgroundImageFix"/>
<feBlend mode="normal" in="SourceGraphic" in2="BackgroundImageFix" result="shape"/>
<feColorMatrix in="SourceAlpha" type="matrix" values="0 0 0 0 0 0 0 0 0 0 0 0 0 0 0 0 0 0 127 0" result="hardAlpha"/>
<feOffset dy="4"/>
<feGaussianBlur stdDeviation="4"/>
<feComposite in2="hardAlpha" operator="arithmetic" k2="-1" k3="1"/>
<feColorMatrix type="matrix" values="0 0 0 0 1 0 0 0 0 1 0 0 0 0 1 0 0 0 0.55 0"/>
<feBlend mode="normal" in2="shape" result="effect1_innerShadow_34_404"/>
</filter>
</defs>
</svg>
