<svg width="164" height="168" viewBox="0 0 164 168" fill="none" xmlns="http://www.w3.org/2000/svg">
<g filter="url(#filter0_f_34_394)">
<path d="M82.3001 53.5566C75.1509 63.0392 73.9112 75.9806 80.2178 86.6518C86.5244 97.3231 98.6166 102.745 110.598 101.438C108.05 104.817 104.752 107.757 100.778 109.998C85.6512 118.53 66.454 113.713 57.9001 99.2395C49.3463 84.7657 54.6748 66.1159 69.8018 57.584C73.7759 55.3425 78.031 54.0223 82.3001 53.5566Z" fill="#FFEE94"/>
</g>
<g filter="url(#filter1_i_34_394)">
<path d="M81.6335 57.5526C75.1074 66.2087 73.9758 78.0219 79.7327 87.763C85.4896 97.5041 96.5277 102.453 107.464 101.26C105.139 104.345 102.129 107.028 98.5009 109.074C84.6924 116.862 67.1687 112.466 59.3604 99.2534C51.5521 86.0413 56.4162 69.0172 70.2247 61.2289C73.8523 59.1828 77.7365 57.9777 81.6335 57.5526Z" fill="url(#paint0_linear_34_394)"/>
</g>
<g filter="url(#filter2_b_34_394)">
<g filter="url(#filter3_i_34_394)">
<path d="M77.4016 104.3C77.5298 103.589 77.5967 102.857 77.5967 102.11C77.5967 95.125 71.746 89.4622 64.5288 89.4622C59.1635 89.4622 54.5533 92.5918 52.5408 97.0679C50.9104 95.7055 48.7947 94.8829 46.4827 94.8829C41.3276 94.8829 37.1486 98.9727 37.1486 104.018C37.1486 104.299 37.1615 104.577 37.1869 104.851C34.7073 106.027 33 108.493 33 111.346C33 115.337 36.3433 118.573 40.4674 118.573H75.7299C79.854 118.573 83.1972 115.337 83.1972 111.346C83.1972 107.91 80.7208 105.035 77.4016 104.3Z" fill="url(#paint1_linear_34_394)"/>
</g>
</g>
<g filter="url(#filter4_b_34_394)">
<g filter="url(#filter5_i_34_394)">
<path d="M108.204 60.5554C108.333 59.8442 108.399 59.1126 108.399 58.3659C108.399 51.3805 102.549 45.7177 95.3316 45.7177C89.9663 45.7177 85.3561 48.8473 83.3436 53.3234C81.7132 51.961 79.5975 51.1383 77.2855 51.1383C72.1304 51.1383 67.9513 55.2282 67.9513 60.2732C67.9513 60.5542 67.9643 60.8321 67.9897 61.1066C65.5101 62.2821 63.8028 64.7487 63.8028 67.6012C63.8028 71.5929 67.1461 74.8288 71.2702 74.8288H106.533C110.657 74.8288 114 71.5929 114 67.6012C114 64.1658 111.524 61.2902 108.204 60.5554Z" fill="url(#paint2_linear_34_394)"/>
</g>
</g>
<g filter="url(#filter6_di_34_394)">
<path d="M88.5491 34.1218C85.5498 35.423 84.3792 36.5225 83.3062 39.2436C82.4517 36.6066 81.401 35.4303 78.0634 34.1218C81.4968 33.029 82.4286 31.764 83.3062 29C84.3847 31.5474 85.0508 32.9377 88.5491 34.1218Z" fill="url(#paint3_linear_34_394)"/>
</g>
<g filter="url(#filter7_di_34_394)">
<path d="M58.0315 58.3624C55.0322 59.6636 53.8616 60.7631 52.7887 63.4842C51.9342 60.8472 50.8834 59.6709 47.5458 58.3624C50.9792 57.2696 51.911 56.0046 52.7887 53.2406C53.8671 55.788 54.5332 57.1783 58.0315 58.3624Z" fill="url(#paint4_linear_34_394)"/>
</g>
<g filter="url(#filter8_di_34_394)">
<path d="M106.232 86.5038C103.233 87.8049 102.062 88.9045 100.989 91.6256C100.135 88.9885 99.0841 87.8123 95.7465 86.5038C99.1799 85.411 100.112 84.1459 100.989 81.382C102.068 83.9294 102.734 85.3196 106.232 86.5038Z" fill="url(#paint5_linear_34_394)"/>
</g>
<defs>
<filter id="filter0_f_34_394" x="0.818848" y="0.556519" width="162.779" height="166.661" filterUnits="userSpaceOnUse" color-interpolation-filters="sRGB">
<feFlood flood-opacity="0" result="BackgroundImageFix"/>
<feBlend mode="normal" in="SourceGraphic" in2="BackgroundImageFix" result="shape"/>
<feGaussianBlur stdDeviation="26.5" result="effect1_foregroundBlur_34_394"/>
</filter>
<filter id="filter1_i_34_394" x="55.6348" y="57.5526" width="51.8295" height="59.373" filterUnits="userSpaceOnUse" color-interpolation-filters="sRGB">
<feFlood flood-opacity="0" result="BackgroundImageFix"/>
<feBlend mode="normal" in="SourceGraphic" in2="BackgroundImageFix" result="shape"/>
<feColorMatrix in="SourceAlpha" type="matrix" values="0 0 0 0 0 0 0 0 0 0 0 0 0 0 0 0 0 0 127 0" result="hardAlpha"/>
<feOffset dy="4"/>
<feGaussianBlur stdDeviation="4"/>
<feComposite in2="hardAlpha" operator="arithmetic" k2="-1" k3="1"/>
<feColorMatrix type="matrix" values="0 0 0 0 1 0 0 0 0 1 0 0 0 0 1 0 0 0 0.55 0"/>
<feBlend mode="normal" in2="shape" result="effect1_innerShadow_34_394"/>
</filter>
<filter id="filter2_b_34_394" x="6" y="62.4622" width="104.197" height="83.1111" filterUnits="userSpaceOnUse" color-interpolation-filters="sRGB">
<feFlood flood-opacity="0" result="BackgroundImageFix"/>
<feGaussianBlur in="BackgroundImageFix" stdDeviation="13.5"/>
<feComposite in2="SourceAlpha" operator="in" result="effect1_backgroundBlur_34_394"/>
<feBlend mode="normal" in="SourceGraphic" in2="effect1_backgroundBlur_34_394" result="shape"/>
</filter>
<filter id="filter3_i_34_394" x="33" y="89.4622" width="50.1972" height="39.1111" filterUnits="userSpaceOnUse" color-interpolation-filters="sRGB">
<feFlood flood-opacity="0" result="BackgroundImageFix"/>
<feBlend mode="normal" in="SourceGraphic" in2="BackgroundImageFix" result="shape"/>
<feColorMatrix in="SourceAlpha" type="matrix" values="0 0 0 0 0 0 0 0 0 0 0 0 0 0 0 0 0 0 127 0" result="hardAlpha"/>
<feOffset dy="11"/>
<feGaussianBlur stdDeviation="5"/>
<feComposite in2="hardAlpha" operator="arithmetic" k2="-1" k3="1"/>
<feColorMatrix type="matrix" values="0 0 0 0 1 0 0 0 0 1 0 0 0 0 1 0 0 0 1 0"/>
<feBlend mode="normal" in2="shape" result="effect1_innerShadow_34_394"/>
</filter>
<filter id="filter4_b_34_394" x="36.8028" y="18.7177" width="104.197" height="83.1111" filterUnits="userSpaceOnUse" color-interpolation-filters="sRGB">
<feFlood flood-opacity="0" result="BackgroundImageFix"/>
<feGaussianBlur in="BackgroundImageFix" stdDeviation="13.5"/>
<feComposite in2="SourceAlpha" operator="in" result="effect1_backgroundBlur_34_394"/>
<feBlend mode="normal" in="SourceGraphic" in2="effect1_backgroundBlur_34_394" result="shape"/>
</filter>
<filter id="filter5_i_34_394" x="63.8028" y="45.7177" width="50.1972" height="39.1111" filterUnits="userSpaceOnUse" color-interpolation-filters="sRGB">
<feFlood flood-opacity="0" result="BackgroundImageFix"/>
<feBlend mode="normal" in="SourceGraphic" in2="BackgroundImageFix" result="shape"/>
<feColorMatrix in="SourceAlpha" type="matrix" values="0 0 0 0 0 0 0 0 0 0 0 0 0 0 0 0 0 0 127 0" result="hardAlpha"/>
<feOffset dy="11"/>
<feGaussianBlur stdDeviation="5"/>
<feComposite in2="hardAlpha" operator="arithmetic" k2="-1" k3="1"/>
<feColorMatrix type="matrix" values="0 0 0 0 1 0 0 0 0 1 0 0 0 0 1 0 0 0 1 0"/>
<feBlend mode="normal" in2="shape" result="effect1_innerShadow_34_394"/>
</filter>
<filter id="filter6_di_34_394" x="69.296" y="29" width="28.0206" height="30.0111" filterUnits="userSpaceOnUse" color-interpolation-filters="sRGB">
<feFlood flood-opacity="0" result="BackgroundImageFix"/>
<feColorMatrix in="SourceAlpha" type="matrix" values="0 0 0 0 0 0 0 0 0 0 0 0 0 0 0 0 0 0 127 0" result="hardAlpha"/>
<feOffset dy="11"/>
<feGaussianBlur stdDeviation="4.38372"/>
<feColorMatrix type="matrix" values="0 0 0 0 0.285052 0 0 0 0 0.179688 0 0 0 0 0.9375 0 0 0 1 0"/>
<feBlend mode="normal" in2="BackgroundImageFix" result="effect1_dropShadow_34_394"/>
<feBlend mode="normal" in="SourceGraphic" in2="effect1_dropShadow_34_394" result="shape"/>
<feColorMatrix in="SourceAlpha" type="matrix" values="0 0 0 0 0 0 0 0 0 0 0 0 0 0 0 0 0 0 127 0" result="hardAlpha"/>
<feOffset dy="4"/>
<feGaussianBlur stdDeviation="2"/>
<feComposite in2="hardAlpha" operator="arithmetic" k2="-1" k3="1"/>
<feColorMatrix type="matrix" values="0 0 0 0 1 0 0 0 0 1 0 0 0 0 1 0 0 0 0.44 0"/>
<feBlend mode="normal" in2="shape" result="effect2_innerShadow_34_394"/>
</filter>
<filter id="filter7_di_34_394" x="38.7784" y="53.2406" width="28.0206" height="30.0111" filterUnits="userSpaceOnUse" color-interpolation-filters="sRGB">
<feFlood flood-opacity="0" result="BackgroundImageFix"/>
<feColorMatrix in="SourceAlpha" type="matrix" values="0 0 0 0 0 0 0 0 0 0 0 0 0 0 0 0 0 0 127 0" result="hardAlpha"/>
<feOffset dy="11"/>
<feGaussianBlur stdDeviation="4.38372"/>
<feColorMatrix type="matrix" values="0 0 0 0 0.285052 0 0 0 0 0.179688 0 0 0 0 0.9375 0 0 0 0.28 0"/>
<feBlend mode="normal" in2="BackgroundImageFix" result="effect1_dropShadow_34_394"/>
<feBlend mode="normal" in="SourceGraphic" in2="effect1_dropShadow_34_394" result="shape"/>
<feColorMatrix in="SourceAlpha" type="matrix" values="0 0 0 0 0 0 0 0 0 0 0 0 0 0 0 0 0 0 127 0" result="hardAlpha"/>
<feOffset dy="4"/>
<feGaussianBlur stdDeviation="2"/>
<feComposite in2="hardAlpha" operator="arithmetic" k2="-1" k3="1"/>
<feColorMatrix type="matrix" values="0 0 0 0 1 0 0 0 0 1 0 0 0 0 1 0 0 0 0.44 0"/>
<feBlend mode="normal" in2="shape" result="effect2_innerShadow_34_394"/>
</filter>
<filter id="filter8_di_34_394" x="86.9791" y="81.382" width="28.0206" height="30.0111" filterUnits="userSpaceOnUse" color-interpolation-filters="sRGB">
<feFlood flood-opacity="0" result="BackgroundImageFix"/>
<feColorMatrix in="SourceAlpha" type="matrix" values="0 0 0 0 0 0 0 0 0 0 0 0 0 0 0 0 0 0 127 0" result="hardAlpha"/>
<feOffset dy="11"/>
<feGaussianBlur stdDeviation="4.38372"/>
<feColorMatrix type="matrix" values="0 0 0 0 0.285052 0 0 0 0 0.179688 0 0 0 0 0.9375 0 0 0 0.8 0"/>
<feBlend mode="normal" in2="BackgroundImageFix" result="effect1_dropShadow_34_394"/>
<feBlend mode="normal" in="SourceGraphic" in2="effect1_dropShadow_34_394" result="shape"/>
<feColorMatrix in="SourceAlpha" type="matrix" values="0 0 0 0 0 0 0 0 0 0 0 0 0 0 0 0 0 0 127 0" result="hardAlpha"/>
<feOffset dy="4"/>
<feGaussianBlur stdDeviation="2"/>
<feComposite in2="hardAlpha" operator="arithmetic" k2="-1" k3="1"/>
<feColorMatrix type="matrix" values="0 0 0 0 1 0 0 0 0 1 0 0 0 0 1 0 0 0 0.44 0"/>
<feBlend mode="normal" in2="shape" result="effect2_innerShadow_34_394"/>
</filter>
<linearGradient id="paint0_linear_34_394" x1="83.0546" y1="52.962" x2="73.155" y2="114.321" gradientUnits="userSpaceOnUse">
<stop stop-color="#FFEE94"/>
<stop offset="1" stop-color="#FF9900"/>
</linearGradient>
<linearGradient id="paint1_linear_34_394" x1="36.1928" y1="115.974" x2="85.9795" y2="77.8632" gradientUnits="userSpaceOnUse">
<stop stop-color="white"/>
<stop offset="1" stop-color="white" stop-opacity="0.58"/>
</linearGradient>
<linearGradient id="paint2_linear_34_394" x1="66.9956" y1="72.2296" x2="116.782" y2="34.1187" gradientUnits="userSpaceOnUse">
<stop stop-color="white"/>
<stop offset="1" stop-color="white" stop-opacity="0.58"/>
</linearGradient>
<linearGradient id="paint3_linear_34_394" x1="81.7895" y1="39.7236" x2="86.5469" y2="30.5803" gradientUnits="userSpaceOnUse">
<stop stop-color="#FF9900"/>
<stop offset="1" stop-color="#FFEE94"/>
</linearGradient>
<linearGradient id="paint4_linear_34_394" x1="51.2719" y1="63.9642" x2="56.0293" y2="54.8209" gradientUnits="userSpaceOnUse">
<stop stop-color="#FF9900"/>
<stop offset="1" stop-color="#FFEE94"/>
</linearGradient>
<linearGradient id="paint5_linear_34_394" x1="99.4726" y1="92.1055" x2="104.23" y2="82.9622" gradientUnits="userSpaceOnUse">
<stop stop-color="#FF9900"/>
<stop offset="1" stop-color="#FFEE94"/>
</linearGradient>
</defs>
</svg>
