<svg width="220" height="214" viewBox="0 0 220 214" fill="none" xmlns="http://www.w3.org/2000/svg">
<g filter="url(#filter0_i_34_402)">
<path d="M148.573 89.3326C148.671 88.792 148.722 88.2358 148.722 87.6682C148.722 82.3583 144.254 78.0537 138.741 78.0537C134.643 78.0537 131.122 80.4327 129.585 83.8352C128.34 82.7995 126.724 82.1742 124.958 82.1742C121.021 82.1742 117.829 85.2831 117.829 89.1181C117.829 89.3316 117.838 89.5429 117.858 89.7515C115.964 90.6451 114.66 92.52 114.66 94.6884C114.66 97.7226 117.214 100.182 120.363 100.182H147.297C150.446 100.182 153 97.7226 153 94.6884C153 92.077 151.109 89.8911 148.573 89.3326Z" fill="url(#paint0_linear_34_402)"/>
</g>
<g filter="url(#filter1_f_34_402)">
<rect x="77.94" y="77" width="64.8" height="59.5367" rx="29.7683" fill="#FFEF9A"/>
</g>
<g filter="url(#filter2_i_34_402)">
<path d="M138.96 106.768C138.96 122.336 126.146 134.956 110.34 134.956C94.5336 134.956 81.72 122.336 81.72 106.768C81.72 91.2006 94.5336 78.5806 110.34 78.5806C126.146 78.5806 138.96 91.2006 138.96 106.768Z" fill="url(#paint1_linear_34_402)"/>
</g>
<g filter="url(#filter3_i_34_402)">
<path d="M105.913 128.321C106.011 127.781 106.062 127.224 106.062 126.657C106.062 121.347 101.594 117.042 96.0813 117.042C91.9833 117.042 88.4621 119.421 86.925 122.824C85.6797 121.788 84.0638 121.163 82.2979 121.163C78.3605 121.163 75.1686 124.272 75.1686 128.107C75.1686 128.32 75.1785 128.532 75.1979 128.74C73.304 129.634 72 131.509 72 133.677C72 136.711 74.5535 139.171 77.7035 139.171H104.637C107.786 139.171 110.34 136.711 110.34 133.677C110.34 131.066 108.449 128.88 105.913 128.321Z" fill="url(#paint2_linear_34_402)"/>
</g>
<defs>
<filter id="filter0_i_34_402" x="114.66" y="78.0537" width="38.34" height="32.1287" filterUnits="userSpaceOnUse" color-interpolation-filters="sRGB">
<feFlood flood-opacity="0" result="BackgroundImageFix"/>
<feBlend mode="normal" in="SourceGraphic" in2="BackgroundImageFix" result="shape"/>
<feColorMatrix in="SourceAlpha" type="matrix" values="0 0 0 0 0 0 0 0 0 0 0 0 0 0 0 0 0 0 127 0" result="hardAlpha"/>
<feOffset dy="11"/>
<feGaussianBlur stdDeviation="5"/>
<feComposite in2="hardAlpha" operator="arithmetic" k2="-1" k3="1"/>
<feColorMatrix type="matrix" values="0 0 0 0 1 0 0 0 0 1 0 0 0 0 1 0 0 0 1 0"/>
<feBlend mode="normal" in2="shape" result="effect1_innerShadow_34_402"/>
</filter>
<filter id="filter1_f_34_402" x="0.940002" y="0" width="218.8" height="213.537" filterUnits="userSpaceOnUse" color-interpolation-filters="sRGB">
<feFlood flood-opacity="0" result="BackgroundImageFix"/>
<feBlend mode="normal" in="SourceGraphic" in2="BackgroundImageFix" result="shape"/>
<feGaussianBlur stdDeviation="38.5" result="effect1_foregroundBlur_34_402"/>
</filter>
<filter id="filter2_i_34_402" x="81.72" y="78.5806" width="57.24" height="61.3755" filterUnits="userSpaceOnUse" color-interpolation-filters="sRGB">
<feFlood flood-opacity="0" result="BackgroundImageFix"/>
<feBlend mode="normal" in="SourceGraphic" in2="BackgroundImageFix" result="shape"/>
<feColorMatrix in="SourceAlpha" type="matrix" values="0 0 0 0 0 0 0 0 0 0 0 0 0 0 0 0 0 0 127 0" result="hardAlpha"/>
<feOffset dy="5"/>
<feGaussianBlur stdDeviation="9"/>
<feComposite in2="hardAlpha" operator="arithmetic" k2="-1" k3="1"/>
<feColorMatrix type="matrix" values="0 0 0 0 1 0 0 0 0 1 0 0 0 0 1 0 0 0 0.81 0"/>
<feBlend mode="normal" in2="shape" result="effect1_innerShadow_34_402"/>
</filter>
<filter id="filter3_i_34_402" x="72" y="117.042" width="38.34" height="32.1287" filterUnits="userSpaceOnUse" color-interpolation-filters="sRGB">
<feFlood flood-opacity="0" result="BackgroundImageFix"/>
<feBlend mode="normal" in="SourceGraphic" in2="BackgroundImageFix" result="shape"/>
<feColorMatrix in="SourceAlpha" type="matrix" values="0 0 0 0 0 0 0 0 0 0 0 0 0 0 0 0 0 0 127 0" result="hardAlpha"/>
<feOffset dy="11"/>
<feGaussianBlur stdDeviation="5"/>
<feComposite in2="hardAlpha" operator="arithmetic" k2="-1" k3="1"/>
<feColorMatrix type="matrix" values="0 0 0 0 1 0 0 0 0 1 0 0 0 0 1 0 0 0 1 0"/>
<feBlend mode="normal" in2="shape" result="effect1_innerShadow_34_402"/>
</filter>
<linearGradient id="paint0_linear_34_402" x1="117.099" y1="98.2066" x2="154.991" y2="69.062" gradientUnits="userSpaceOnUse">
<stop stop-color="white"/>
<stop offset="1" stop-color="white" stop-opacity="0.58"/>
</linearGradient>
<linearGradient id="paint1_linear_34_402" x1="105.993" y1="122.111" x2="129.004" y2="81.1336" gradientUnits="userSpaceOnUse">
<stop stop-color="#FF9900"/>
<stop offset="1" stop-color="#FFEE94"/>
</linearGradient>
<linearGradient id="paint2_linear_34_402" x1="74.4386" y1="137.195" x2="112.331" y2="108.051" gradientUnits="userSpaceOnUse">
<stop stop-color="white"/>
<stop offset="1" stop-color="white" stop-opacity="0.58"/>
</linearGradient>
</defs>
</svg>
