<svg width="185" height="185" viewBox="0 0 185 185" fill="none" xmlns="http://www.w3.org/2000/svg">
<path d="M114.181 77.3005L90.8657 54.0669C92.0279 53.3431 93.2627 52.8365 94.5701 52.547C95.8775 52.2574 97.2576 52.1127 98.7102 52.1127C103.504 52.1127 107.609 53.8121 111.026 57.211C114.437 60.6157 116.143 64.7066 116.143 69.4836C116.143 70.9311 115.997 72.3063 115.707 73.6092C115.416 74.912 114.908 76.1424 114.181 77.3005ZM172.58 185L130.742 143.31C126.239 148.232 121.337 153.226 116.038 158.292C110.733 163.359 104.957 168.498 98.7102 173.709C75.3219 153.877 57.8548 135.493 46.3088 118.556C34.757 101.62 28.9812 85.8412 28.9812 71.2207C28.9812 66.5884 29.3443 62.1733 30.0707 57.9754C30.797 53.7774 31.8139 49.7966 33.1213 46.0329L0 13.0282L12.4205 0.651409L185 172.623L172.58 185ZM152.75 115.734C157.98 107.627 161.902 99.9174 164.517 92.6042C167.132 85.2969 168.439 78.169 168.439 71.2207C168.439 49.507 161.429 32.2085 147.407 19.3251C133.392 6.44171 117.159 0 98.7102 0C90.1394 0 81.9695 1.40994 74.2005 4.22981C66.4257 7.05548 59.415 11.1463 53.1684 16.5023L65.5889 28.8791C70.0923 25.1154 75.1418 22.255 80.7376 20.2979C86.3275 18.3466 92.3184 17.3709 98.7102 17.3709C113.382 17.3709 125.765 22.3998 135.858 32.4575C145.958 42.5211 151.007 55.4421 151.007 71.2207C151.007 75.8529 150.135 80.8094 148.392 86.0901C146.649 91.3767 143.889 97.0599 140.112 103.14L152.75 115.734ZM98.7102 150.693C102.487 147.363 106.011 144.068 109.283 140.808C112.549 137.554 115.634 134.335 118.539 131.15L47.285 60.1467C46.9945 62.0286 46.7766 63.8728 46.6313 65.6794C46.4861 67.4917 46.4134 69.3388 46.4134 71.2207C46.4134 81.4984 50.6989 93.2585 59.2697 106.501C67.8406 119.749 80.9874 134.48 98.7102 150.693Z" fill="white"/>
</svg>
